<svg width="33" height="40" viewBox="0 0 33 40" fill="none" xmlns="http://www.w3.org/2000/svg">
<path d="M27.2966 20.8279C27.2509 15.88 31.4518 13.4728 31.6439 13.3607C29.2648 9.97872 25.5772 9.51663 24.2813 9.47978C21.1842 9.162 18.1799 11.2867 16.6022 11.2867C14.993 11.2867 12.5635 9.51048 9.94502 9.56268C6.57548 9.61334 3.42323 11.5154 1.69437 14.4691C-1.87357 20.4917 0.787427 29.342 4.20578 34.2101C5.91574 36.5943 7.91385 39.2563 10.5292 39.1626C13.0878 39.0598 14.0436 37.5722 17.1313 37.5722C20.1906 37.5722 21.0881 39.1626 23.7554 39.1028C26.5014 39.0598 28.2303 36.7079 29.8804 34.3022C31.8565 31.5696 32.65 28.8784 32.6815 28.7402C32.617 28.7188 27.3485 26.7583 27.2966 20.8279Z" fill="black"/>
<path d="M22.258 6.27738C23.6342 4.59942 24.5757 2.3166 24.3144 0C22.3226 0.0859705 19.8316 1.34329 18.3972 2.9844C17.1281 4.43055 15.9944 6.80088 16.2873 9.02997C18.5247 9.1927 20.822 7.92924 22.258 6.27738Z" fill="black"/>
</svg>
