<svg width="132" height="400" viewBox="0 0 132 400" fill="none" xmlns="http://www.w3.org/2000/svg">
<path fill-rule="evenodd" clip-rule="evenodd" d="M-58.8 -39C-115.796 -39 -162 7.20421 -162 64.2C-162 121.196 -115.796 167.4 -58.8 167.4C-1.80422 167.4 44.4 121.196 44.4 64.2C44.4 7.20421 -1.80422 -39 -58.8 -39ZM-178 64.2C-178 -1.63235 -124.632 -55 -58.8 -55C7.03233 -55 60.4 -1.63235 60.4 64.2C60.4 130.032 7.03233 183.4 -58.8 183.4C-124.632 183.4 -178 130.032 -178 64.2Z" fill="#BFE797"/>
<path fill-rule="evenodd" clip-rule="evenodd" d="M-58.7996 -12.6002C-101.215 -12.6002 -135.6 21.7844 -135.6 64.1999C-135.6 106.615 -101.215 141 -58.7996 141C-16.3841 141 18.0004 106.615 18.0004 64.1999C18.0004 21.7844 -16.3841 -12.6002 -58.7996 -12.6002ZM-151.6 64.1999C-151.6 12.9478 -110.052 -28.6002 -58.7996 -28.6002C-7.54758 -28.6002 34.0004 12.9478 34.0004 64.1999C34.0004 115.452 -7.54758 157 -58.7996 157C-110.052 157 -151.6 115.452 -151.6 64.1999Z" fill="#BFE797"/>
<path fill-rule="evenodd" clip-rule="evenodd" d="M-58.8 17.0001C-84.8678 17.0001 -106 38.1323 -106 64.2001C-106 90.2679 -84.8678 111.4 -58.8 111.4C-32.7322 111.4 -11.6 90.2679 -11.6 64.2001C-11.6 38.1323 -32.7322 17.0001 -58.8 17.0001ZM-122 64.2001C-122 29.2957 -93.7044 1.00011 -58.8 1.00011C-23.8956 1.00011 4.39999 29.2957 4.39999 64.2001C4.39999 99.1045 -23.8956 127.4 -58.8 127.4C-93.7044 127.4 -122 99.1045 -122 64.2001Z" fill="#BFE797"/>
<path fill-rule="evenodd" clip-rule="evenodd" d="M-27.8 309C-84.7958 309 -131 355.204 -131 412.2C-131 469.196 -84.7958 515.4 -27.8 515.4C29.1958 515.4 75.4 469.196 75.4 412.2C75.4 355.204 29.1958 309 -27.8 309ZM-147 412.2C-147 346.368 -93.6323 293 -27.8 293C38.0323 293 91.4 346.368 91.4 412.2C91.4 478.032 38.0323 531.4 -27.8 531.4C-93.6323 531.4 -147 478.032 -147 412.2Z" fill="#BFE797"/>
<path fill-rule="evenodd" clip-rule="evenodd" d="M-27.7996 335.4C-70.2151 335.4 -104.6 369.784 -104.6 412.2C-104.6 454.615 -70.2151 489 -27.7996 489C14.6159 489 49.0004 454.615 49.0004 412.2C49.0004 369.784 14.6159 335.4 -27.7996 335.4ZM-120.6 412.2C-120.6 360.948 -79.0516 319.4 -27.7996 319.4C23.4524 319.4 65.0004 360.948 65.0004 412.2C65.0004 463.452 23.4524 505 -27.7996 505C-79.0516 505 -120.6 463.452 -120.6 412.2Z" fill="#BFE797"/>
<path fill-rule="evenodd" clip-rule="evenodd" d="M-27.8 365C-53.8678 365 -75 386.132 -75 412.2C-75 438.268 -53.8678 459.4 -27.8 459.4C-1.73216 459.4 19.4 438.268 19.4 412.2C19.4 386.132 -1.73216 365 -27.8 365ZM-91 412.2C-91 377.296 -62.7044 349 -27.8 349C7.10439 349 35.4 377.296 35.4 412.2C35.4 447.105 7.10439 475.4 -27.8 475.4C-62.7044 475.4 -91 447.105 -91 412.2Z" fill="#BFE797"/>
<path fill-rule="evenodd" clip-rule="evenodd" d="M-27.8004 394.6C-37.5206 394.6 -45.4004 402.48 -45.4004 412.2C-45.4004 421.92 -37.5206 429.8 -27.8004 429.8C-18.0802 429.8 -10.2004 421.92 -10.2004 412.2C-10.2004 402.48 -18.0802 394.6 -27.8004 394.6ZM-61.4004 412.2C-61.4004 393.643 -46.3572 378.6 -27.8004 378.6C-9.24362 378.6 5.79961 393.643 5.79961 412.2C5.79961 430.757 -9.24362 445.8 -27.8004 445.8C-46.3572 445.8 -61.4004 430.757 -61.4004 412.2Z" fill="#BFE797"/>
</svg>
