<svg width="132" height="142" viewBox="0 0 132 142" fill="none" xmlns="http://www.w3.org/2000/svg">
<path fill-rule="evenodd" clip-rule="evenodd" d="M-27.8 51C-84.7958 51 -131 97.2042 -131 154.2C-131 211.196 -84.7958 257.4 -27.8 257.4C29.1958 257.4 75.4 211.196 75.4 154.2C75.4 97.2042 29.1958 51 -27.8 51ZM-147 154.2C-147 88.3677 -93.6323 35 -27.8 35C38.0323 35 91.4 88.3677 91.4 154.2C91.4 220.032 38.0323 273.4 -27.8 273.4C-93.6323 273.4 -147 220.032 -147 154.2Z" fill="#BFE797"/>
<path fill-rule="evenodd" clip-rule="evenodd" d="M-27.7996 77.3998C-70.2151 77.3998 -104.6 111.784 -104.6 154.2C-104.6 196.615 -70.2151 231 -27.7996 231C14.6159 231 49.0004 196.615 49.0004 154.2C49.0004 111.784 14.6159 77.3998 -27.7996 77.3998ZM-120.6 154.2C-120.6 102.948 -79.0516 61.3998 -27.7996 61.3998C23.4524 61.3998 65.0004 102.948 65.0004 154.2C65.0004 205.452 23.4524 247 -27.7996 247C-79.0516 247 -120.6 205.452 -120.6 154.2Z" fill="#BFE797"/>
<path fill-rule="evenodd" clip-rule="evenodd" d="M-27.8 107C-53.8678 107 -75 128.132 -75 154.2C-75 180.268 -53.8678 201.4 -27.8 201.4C-1.73216 201.4 19.4 180.268 19.4 154.2C19.4 128.132 -1.73216 107 -27.8 107ZM-91 154.2C-91 119.296 -62.7044 91.0001 -27.8 91.0001C7.10439 91.0001 35.4 119.296 35.4 154.2C35.4 189.105 7.10439 217.4 -27.8 217.4C-62.7044 217.4 -91 189.105 -91 154.2Z" fill="#BFE797"/>
<path fill-rule="evenodd" clip-rule="evenodd" d="M-27.8004 136.6C-37.5206 136.6 -45.4004 144.48 -45.4004 154.2C-45.4004 163.92 -37.5206 171.8 -27.8004 171.8C-18.0802 171.8 -10.2004 163.92 -10.2004 154.2C-10.2004 144.48 -18.0802 136.6 -27.8004 136.6ZM-61.4004 154.2C-61.4004 135.643 -46.3572 120.6 -27.8004 120.6C-9.24362 120.6 5.79961 135.643 5.79961 154.2C5.79961 172.757 -9.24362 187.8 -27.8004 187.8C-46.3572 187.8 -61.4004 172.757 -61.4004 154.2Z" fill="#BFE797"/>
</svg>
