<svg width="101" height="184" viewBox="0 0 101 184" fill="none" xmlns="http://www.w3.org/2000/svg">
<path fill-rule="evenodd" clip-rule="evenodd" d="M-58.8 -39C-115.796 -39 -162 7.20421 -162 64.2C-162 121.196 -115.796 167.4 -58.8 167.4C-1.80422 167.4 44.4 121.196 44.4 64.2C44.4 7.20421 -1.80422 -39 -58.8 -39ZM-178 64.2C-178 -1.63235 -124.632 -55 -58.8 -55C7.03233 -55 60.4 -1.63235 60.4 64.2C60.4 130.032 7.03233 183.4 -58.8 183.4C-124.632 183.4 -178 130.032 -178 64.2Z" fill="#BFE797"/>
<path fill-rule="evenodd" clip-rule="evenodd" d="M-58.7996 -12.6002C-101.215 -12.6002 -135.6 21.7844 -135.6 64.1999C-135.6 106.615 -101.215 141 -58.7996 141C-16.3841 141 18.0004 106.615 18.0004 64.1999C18.0004 21.7844 -16.3841 -12.6002 -58.7996 -12.6002ZM-151.6 64.1999C-151.6 12.9478 -110.052 -28.6002 -58.7996 -28.6002C-7.54758 -28.6002 34.0004 12.9478 34.0004 64.1999C34.0004 115.452 -7.54758 157 -58.7996 157C-110.052 157 -151.6 115.452 -151.6 64.1999Z" fill="#BFE797"/>
<path fill-rule="evenodd" clip-rule="evenodd" d="M-58.8 17.0001C-84.8678 17.0001 -106 38.1323 -106 64.2001C-106 90.2679 -84.8678 111.4 -58.8 111.4C-32.7322 111.4 -11.6 90.2679 -11.6 64.2001C-11.6 38.1323 -32.7322 17.0001 -58.8 17.0001ZM-122 64.2001C-122 29.2957 -93.7044 1.00011 -58.8 1.00011C-23.8956 1.00011 4.39999 29.2957 4.39999 64.2001C4.39999 99.1045 -23.8956 127.4 -58.8 127.4C-93.7044 127.4 -122 99.1045 -122 64.2001Z" fill="#BFE797"/>
</svg>
