<svg width="43" height="46" viewBox="0 0 43 46" fill="none" xmlns="http://www.w3.org/2000/svg">
<path d="M0.939502 1.1072C0.394291 1.64184 0.0787659 2.47423 0.0787659 3.5522V42.0028C0.0787659 43.0808 0.394291 43.9132 0.939502 44.4478L1.07407 44.5652L24.075 23.0274V22.5189L1.07407 0.981149L0.939502 1.1072Z" fill="url(#paint0_linear_24_239)"/>
<path d="M31.7334 30.2103L24.075 23.0275V22.5189L31.7427 15.336L31.9144 15.4295L40.9951 20.2695C43.5866 21.643 43.5866 23.9033 40.9951 25.2856L31.9144 30.1169L31.7334 30.2103Z" fill="url(#paint1_linear_24_239)"/>
<path d="M31.9144 30.1169L24.075 22.7732L0.939476 44.4479C1.80021 45.2955 3.20384 45.3976 4.80004 44.55L31.9144 30.1169Z" fill="url(#paint2_linear_24_239)"/>
<path d="M31.9144 15.4295L4.80004 0.996398C3.20384 0.157491 1.80021 0.259637 0.939476 1.10724L24.075 22.7732L31.9144 15.4295Z" fill="url(#paint3_linear_24_239)"/>
<defs>
<linearGradient id="paint0_linear_24_239" x1="22.0328" y1="42.4032" x2="-7.08404" y2="11.3208" gradientUnits="userSpaceOnUse">
<stop stop-color="#00A0FF"/>
<stop offset="0.0066" stop-color="#00A1FF"/>
<stop offset="0.2601" stop-color="#00BEFF"/>
<stop offset="0.5122" stop-color="#00D2FF"/>
<stop offset="0.7604" stop-color="#00DFFF"/>
<stop offset="1" stop-color="#00E3FF"/>
</linearGradient>
<linearGradient id="paint1_linear_24_239" x1="44.3696" y1="22.7707" x2="-0.540753" y2="22.7707" gradientUnits="userSpaceOnUse">
<stop stop-color="#FFE000"/>
<stop offset="0.4087" stop-color="#FFBD00"/>
<stop offset="0.7754" stop-color="#FFA500"/>
<stop offset="1" stop-color="#FF9C00"/>
</linearGradient>
<linearGradient id="paint2_linear_24_239" x1="27.6516" y1="18.7811" x2="-11.8332" y2="-23.3692" gradientUnits="userSpaceOnUse">
<stop stop-color="#FF3A44"/>
<stop offset="1" stop-color="#C31162"/>
</linearGradient>
<linearGradient id="paint3_linear_24_239" x1="-4.88422" y1="57.2402" x2="12.7475" y2="38.4183" gradientUnits="userSpaceOnUse">
<stop stop-color="#32A071"/>
<stop offset="0.0685" stop-color="#2DA771"/>
<stop offset="0.4762" stop-color="#15CF74"/>
<stop offset="0.8009" stop-color="#06E775"/>
<stop offset="1" stop-color="#00F076"/>
</linearGradient>
</defs>
</svg>
